<svg xmlns="http://www.w3.org/2000/svg" class="railroad" width="544" height="944" viewBox="0 0 544 944"><style>svg.railroad{background:#fff;font-family:monospace;font-size:13px}.rr-line{stroke:#334;stroke-width:2;fill:none}.rr-cap{fill:#334}.rr-term{fill:#e8f0ff;stroke:#334;stroke-width:2}.rr-nonterm{fill:#fff7e8;stroke:#334;stroke-width:2}.rr-label{fill:#111;text-anchor:middle;dominant-baseline:middle}.rr-comment{fill:#666;font-style:italic;text-anchor:middle;dominant-baseline:middle}.rr-title{fill:#113;font-weight:bold;font-size:15px}.rr-legend{fill:#333;font-size:12px}.rr-legend-tok{fill:#113;font-weight:bold}a:hover .rr-nonterm{fill:#ffe6b3;cursor:pointer}</style><g><g id="val"><text class="rr-title" x="16" y="31">val</text><circle class="rr-cap" cx="169" cy="42" r="3"/><path class="rr-line" d="M169 42V56"/><path class="rr-line" d="M169 56V74"/><path class="rr-line" d="M112 74H226"/><path class="rr-line" d="M112 208H226"/><path class="rr-line" d="M169 208V226"/><path class="rr-line" d="M112 74V92"/><path class="rr-line" d="M112 92V110"/><path class="rr-line" d="M38 110H186"/><path class="rr-line" d="M38 172H186"/><path class="rr-line" d="M112 172V190"/><path class="rr-line" d="M38 110V128"/><a href="#map"><rect class="rr-nonterm" x="16" y="128" width="44" height="26" rx="4" ry="4"/><text class="rr-label" x="38" y="141">map</text></a><path class="rr-line" d="M38 154V172"/><path class="rr-line" d="M112 110V128"/><a href="#list"><rect class="rr-nonterm" x="86" y="128" width="52" height="26" rx="4" ry="4"/><text class="rr-label" x="112" y="141">list</text></a><path class="rr-line" d="M112 154V172"/><path class="rr-line" d="M186 110V128"/><rect class="rr-term" x="164" y="128" width="44" height="26" rx="13" ry="13"/><text class="rr-label" x="186" y="141">VAL</text><path class="rr-line" d="M186 154V172"/><path class="rr-line" d="M112 190V208"/><path class="rr-line" d="M226 74V92"/><path class="rr-line" d="M226 92V104"/><path class="rr-line" d="M226 104V208"/><path class="rr-line" d="M169 226V244"/><a href="#list"><rect class="rr-nonterm" x="143" y="244" width="52" height="26" rx="4" ry="4"/><text class="rr-label" x="169" y="257">list</text></a><path class="rr-line" d="M169 270V284"/><circle class="rr-cap" cx="169" cy="284" r="3"/></g><g id="map"><text class="rr-title" x="16" y="333">map</text><circle class="rr-cap" cx="103.5" cy="344" r="3"/><path class="rr-line" d="M103.5 344V358"/><path class="rr-line" d="M103.5 358V376"/><path class="rr-line" d="M31 376H176"/><path class="rr-line" d="M31 482H176"/><path class="rr-line" d="M103.5 482V500"/><path class="rr-line" d="M31 376V394"/><rect class="rr-term" x="16" y="394" width="30" height="26" rx="13" ry="13"/><text class="rr-label" x="31" y="407">{</text><path class="rr-line" d="M31 420V482"/><path class="rr-line" d="M98 376V394"/><rect class="rr-term" x="83" y="394" width="30" height="26" rx="13" ry="13"/><text class="rr-label" x="98" y="407">{</text><path class="rr-line" d="M98 420V438"/><a href="#pair"><rect class="rr-nonterm" x="72" y="438" width="52" height="26" rx="4" ry="4"/><text class="rr-label" x="98" y="451">pair</text></a><path class="rr-line" d="M98 464V482"/><path class="rr-line" d="M176 376V394"/><a href="#pair"><rect class="rr-nonterm" x="150" y="394" width="52" height="26" rx="4" ry="4"/><text class="rr-label" x="176" y="407">pair</text></a><path class="rr-line" d="M176 420V482"/><path class="rr-line" d="M103.5 500V518"/><rect class="rr-term" x="88.5" y="518" width="30" height="26" rx="13" ry="13"/><text class="rr-label" x="103.5" y="531">}</text><path class="rr-line" d="M103.5 544V558"/><circle class="rr-cap" cx="103.5" cy="558" r="3"/></g><g id="list"><text class="rr-title" x="16" y="607">list</text><circle class="rr-cap" cx="109" cy="618" r="3"/><path class="rr-line" d="M109 618V632"/><path class="rr-line" d="M109 632V650"/><path class="rr-line" d="M42 650H176"/><path class="rr-line" d="M42 756H176"/><path class="rr-line" d="M109 756V774"/><path class="rr-line" d="M42 650V668"/><a href="#elem"><rect class="rr-nonterm" x="16" y="668" width="52" height="26" rx="4" ry="4"/><text class="rr-label" x="42" y="681">elem</text></a><path class="rr-line" d="M42 694V756"/><path class="rr-line" d="M109 650V668"/><rect class="rr-term" x="94" y="668" width="30" height="26" rx="13" ry="13"/><text class="rr-label" x="109" y="681">[</text><path class="rr-line" d="M109 694V756"/><path class="rr-line" d="M176 650V668"/><rect class="rr-term" x="161" y="668" width="30" height="26" rx="13" ry="13"/><text class="rr-label" x="176" y="681">[</text><path class="rr-line" d="M176 694V712"/><a href="#elem"><rect class="rr-nonterm" x="150" y="712" width="52" height="26" rx="4" ry="4"/><text class="rr-label" x="176" y="725">elem</text></a><path class="rr-line" d="M176 738V756"/><path class="rr-line" d="M109 774V792"/><rect class="rr-term" x="94" y="792" width="30" height="26" rx="13" ry="13"/><text class="rr-label" x="109" y="805">]</text><path class="rr-line" d="M109 818V832"/><circle class="rr-cap" cx="109" cy="832" r="3"/></g><g id="pair"><text class="rr-title" x="282" y="31">pair</text><circle class="rr-cap" cx="335.5" cy="42" r="3"/><path class="rr-line" d="M335.5 42V56"/><path class="rr-line" d="M335.5 56V74"/><path class="rr-line" d="M335.5 74V92"/><path class="rr-line" d="M304 92H367"/><path class="rr-line" d="M304 242H367"/><path class="rr-line" d="M335.5 242V260"/><path class="rr-line" d="M304 92V110"/><rect class="rr-term" x="282" y="110" width="44" height="26" rx="13" ry="13"/><text class="rr-label" x="304" y="123">KEY</text><path class="rr-line" d="M304 136V154"/><rect class="rr-term" x="289" y="154" width="30" height="26" rx="13" ry="13"/><text class="rr-label" x="304" y="167">:</text><path class="rr-line" d="M304 180V198"/><a href="#val"><rect class="rr-nonterm" x="282" y="198" width="44" height="26" rx="4" ry="4"/><text class="rr-label" x="304" y="211">val</text></a><path class="rr-line" d="M304 224V242"/><path class="rr-line" d="M367 92V110"/><rect class="rr-term" x="352" y="110" width="30" height="26" rx="13" ry="13"/><text class="rr-label" x="367" y="123">,</text><path class="rr-line" d="M367 136V242"/><path class="rr-line" d="M335.5 260V278"/><path class="rr-line" d="M335.5 269H407"/><path class="rr-line" d="M335.5 65H407"/><path class="rr-line" d="M407 180V269"/><path class="rr-line" d="M407 65V154"/><rect class="rr-term" x="392" y="154" width="30" height="26" rx="13" ry="13"/><text class="rr-label" x="407" y="167">,</text><path class="rr-line" d="M335.5 278V296"/><rect class="rr-term" x="320.5" y="296" width="30" height="26" rx="13" ry="13"/><text class="rr-label" x="335.5" y="309">]</text><path class="rr-line" d="M335.5 322V336"/><circle class="rr-cap" cx="335.5" cy="336" r="3"/></g><g id="elem"><text class="rr-title" x="282" y="385">elem</text><circle class="rr-cap" cx="416.75" cy="396" r="3"/><path class="rr-line" d="M416.75 396V410"/><path class="rr-line" d="M416.75 410V428"/><path class="rr-line" d="M416.75 428V446"/><path class="rr-line" d="M363.5 446H470"/><path class="rr-line" d="M363.5 668H470"/><path class="rr-line" d="M416.75 668V686"/><path class="rr-line" d="M363.5 446V464"/><path class="rr-line" d="M363.5 464V482"/><path class="rr-line" d="M297 482H430"/><path class="rr-line" d="M297 632H430"/><path class="rr-line" d="M363.5 632V650"/><path class="rr-line" d="M297 482V500"/><rect class="rr-term" x="282" y="500" width="30" height="26" rx="13" ry="13"/><text class="rr-label" x="297" y="513">,</text><path class="rr-line" d="M297 526V632"/><path class="rr-line" d="M360 482V500"/><rect class="rr-term" x="338" y="500" width="44" height="26" rx="13" ry="13"/><text class="rr-label" x="360" y="513">KEY</text><path class="rr-line" d="M360 526V544"/><rect class="rr-term" x="345" y="544" width="30" height="26" rx="13" ry="13"/><text class="rr-label" x="360" y="557">:</text><path class="rr-line" d="M360 570V588"/><a href="#val"><rect class="rr-nonterm" x="338" y="588" width="44" height="26" rx="4" ry="4"/><text class="rr-label" x="360" y="601">val</text></a><path class="rr-line" d="M360 614V632"/><path class="rr-line" d="M430 482V500"/><a href="#val"><rect class="rr-nonterm" x="408" y="500" width="44" height="26" rx="4" ry="4"/><text class="rr-label" x="430" y="513">val</text></a><path class="rr-line" d="M430 526V632"/><path class="rr-line" d="M363.5 650V668"/><path class="rr-line" d="M470 446V464"/><path class="rr-line" d="M470 464V476"/><path class="rr-line" d="M470 476V668"/><path class="rr-line" d="M416.75 686V704"/><path class="rr-line" d="M416.75 695H503"/><path class="rr-line" d="M416.75 419H503"/><path class="rr-line" d="M503 570V695"/><path class="rr-line" d="M503 419V544"/><rect class="rr-term" x="488" y="544" width="30" height="26" rx="13" ry="13"/><text class="rr-label" x="503" y="557">,</text><path class="rr-line" d="M416.75 704V722"/><rect class="rr-term" x="401.75" y="722" width="30" height="26" rx="13" ry="13"/><text class="rr-label" x="416.75" y="735">}</text><path class="rr-line" d="M416.75 748V762"/><circle class="rr-cap" cx="416.75" cy="762" r="3"/></g><text class="rr-title" x="16" y="881">Tokens</text><text class="rr-legend" x="16" y="903"><tspan class="rr-legend-tok">KEY</tspan>  —  map key (text, number, string, or value)</text><text class="rr-legend" x="16" y="921"><tspan class="rr-legend-tok">VAL</tspan>  —  a value (text, number, string, or value)</text></g></svg>